<svg xmlns="http://www.w3.org/2000/svg" viewBox="0 0 188 120" xmlns:xlink="http://www.w3.org/1999/xlink">
  <defs>
    <circle id="j" cx="101" cy="60" r="60"/>
    <rect id="a" width="88" height="109" x="6" y="6" rx="2"/>
    <mask id="l" width="88" height="109" x="0" y="0" fill="#fff">
      <use xlink:href="#a"/>
    </mask>
    <rect id="b" width="88" height="109" x="3" y="3" rx="2"/>
    <mask id="m" width="88" height="109" x="0" y="0" fill="#fff">
      <use xlink:href="#b"/>
    </mask>
    <rect id="c" width="88" height="109" rx="2"/>
    <mask id="n" width="88" height="109" x="0" y="0" fill="#fff">
      <use xlink:href="#c"/>
    </mask>
    <circle id="d" cx="101" cy="60" r="60"/>
    <mask id="o" width="120" height="120" x="0" y="0" fill="#fff">
      <use xlink:href="#d"/>
    </mask>
    <path id="e" d="M.5 16.5L117 0 28.5 31.5z"/>
    <mask id="p" width="116.5" height="31.5" x="0" y="0" fill="#fff">
      <use xlink:href="#e"/>
    </mask>
    <path id="f" d="M25.5 50.5L117 0 23.5 28.5z"/>
    <mask id="q" width="93.5" height="50.5" x="0" y="0" fill="#fff">
      <use xlink:href="#f"/>
    </mask>
    <path id="g" d="M25.5 50.5L57 40l-14.2229235-5.9130971z"/>
    <mask id="r" width="31.5" height="16.4130971" x="0" y="0" fill="#fff">
      <use xlink:href="#g"/>
    </mask>
    <path id="h" d="M74.5 58.5L117 0 41.5 34.5l14.4323744 19.4053632z"/>
    <mask id="s" width="75.5" height="58.5" x="0" y="0" fill="#fff">
      <use xlink:href="#h"/>
    </mask>
    <path id="i" d="M74.1510835 58.0226854l-7.4099025-9.0567596-10.2355814 5.3639426z"/>
    <mask id="t" width="17.6454839" height="9.05675961" x="0" y="0" fill="#fff">
      <use xlink:href="#i"/>
    </mask>
  </defs>
  <g fill="none" fill-rule="evenodd" transform="translate(1)">
    <mask id="k" fill="#fff">
      <use xlink:href="#j"/>
    </mask>
    <use fill="#FFF" xlink:href="#j"/>
    <g transform="translate(16 26)" mask="url(#k)">
      <use fill="#FAFAFA" stroke="#E8F3D4" stroke-width="2" mask="url(#l)" xlink:href="#a"/>
      <use fill="#FAFAFA" stroke="#E8F3D4" stroke-width="2" mask="url(#m)" xlink:href="#b"/>
      <use fill="#FFF" stroke="#E8F3D4" stroke-width="2" mask="url(#n)" xlink:href="#c"/>
      <path fill="#EAF4D8" d="M29 12c0-.5522847.4473652-1 .9981537-1h28.0036926C58.5531114 11 59 11.4438648 59 12c0 .5522847-.4473652 1-.9981537 1H29.9981537C29.4468886 13 29 12.5561352 29 12zm5 4c0-.5522847.4386148-1 .9987461-1h19.0025078C54.5528461 15 55 15.4438648 55 16c0 .5522847-.4386148 1-.9987461 1H34.9987461C34.4471539 17 34 16.5561352 34 16zM6 27c0-.5522847.43861485-1 .9987461-1h19.0025078C26.5528461 26 27 26.4438648 27 27c0 .5522847-.4386148 1-.9987461 1H6.9987461C6.44715385 28 6 27.5561352 6 27zm0 4c0-.5522847.44724284-1 1.00417015-1H77.9958298C78.5504177 30 79 30.4438648 79 31c0 .5522847-.4472428 1-1.0041702 1H7.00417015C6.4495823 32 6 31.5561352 6 31zm0 4c0-.5522847.45670196-1 .99720725-1H71.0027928C71.5535351 34 72 34.4438648 72 35c0 .5522847-.456702 1-.9972072 1H6.99720725C6.4464649 36 6 35.5561352 6 35zm0 4c0-.5522847.45492426-1 .99914214-1H39.0008579C39.5526688 38 40 38.4438648 40 39c0 .5522847-.4549243 1-.9991421 1H6.99914214C6.44733117 40 6 39.5561352 6 39zm0 11c0-.5522847.43861485-1 .9987461-1h19.0025078C26.5528461 49 27 49.4438648 27 50c0 .5522847-.4386148 1-.9987461 1H6.9987461C6.44715385 51 6 50.5561352 6 50zm0 4c0-.5522847.44724284-1 1.00417015-1H77.9958298C78.5504177 53 79 53.4438648 79 54c0 .5522847-.4472428 1-1.0041702 1H7.00417015C6.4495823 55 6 54.5561352 6 54zm0 4c0-.5522847.45670196-1 .99720725-1H71.0027928C71.5535351 57 72 57.4438648 72 58c0 .5522847-.456702 1-.9972072 1H6.99720725C6.4464649 59 6 58.5561352 6 58zm0 4c0-.5522847.45492426-1 .99914214-1H39.0008579C39.5526688 61 40 61.4438648 40 62c0 .5522847-.4549243 1-.9991421 1H6.99914214C6.44733117 63 6 62.5561352 6 62zm0 11c0-.5522847.43861485-1 .9987461-1h19.0025078C26.5528461 72 27 72.4438648 27 73c0 .5522847-.4386148 1-.9987461 1H6.9987461C6.44715385 74 6 73.5561352 6 73zm0 4c0-.5522847.44724284-1 1.00417015-1H77.9958298C78.5504177 76 79 76.4438648 79 77c0 .5522847-.4472428 1-1.0041702 1H7.00417015C6.4495823 78 6 77.5561352 6 77zm0 4c0-.5522847.45670196-1 .99720725-1H71.0027928C71.5535351 80 72 80.4438648 72 81c0 .5522847-.456702 1-.9972072 1H6.99720725C6.4464649 82 6 81.5561352 6 81zm0 4c0-.5522847.45492426-1 .99914214-1H39.0008579C39.5526688 84 40 84.4438648 40 85c0 .5522847-.4549243 1-.9991421 1H6.99914214C6.44733117 86 6 85.5561352 6 85z"/>
    </g>
    <use stroke="#BFD97F" stroke-width="2" mask="url(#o)" xlink:href="#d"/>
    <path stroke="#B3D928" d="M106.5 73.5S71 99 50 99 25.9509476 73.5 40 70s22.5 7.5 15 17-41.5 22-55-3.5" stroke-dasharray="4" opacity=".8759058"/>
    <g stroke="#AFCA6D" stroke-width="2" transform="rotate(-15 177.85 -202.064)">
      <use fill="#F9FFF0" mask="url(#p)" xlink:href="#e"/>
      <use fill="#EAF4D8" mask="url(#q)" xlink:href="#f"/>
      <use fill="#CDDDA3" mask="url(#r)" xlink:href="#g"/>
      <use fill="#F9FFF0" mask="url(#s)" xlink:href="#h"/>
      <use fill="#EAF4D8" mask="url(#t)" xlink:href="#i"/>
    </g>
  </g>
</svg>
